<svg version="1.1" id="Layer_1" xmlns="http://www.w3.org/2000/svg" x="0px"
     y="0px"
     width="100%" viewBox="0 0 736 912" enable-background="new 0 0 736 912" xml:space="preserve">
<path fill="#ffffff" opacity="1.000000" stroke="none"
      d="
M737.000000,710.583374 
	C731.587952,707.068665 728.211792,701.295227 723.778931,696.378479 
	C729.034302,698.162842 731.601929,703.440735 736.682251,705.884277 
	C737.000000,707.388916 737.000000,708.777771 737.000000,710.583374 
z"/>
    <path fill="#ffffff" opacity="1.000000" stroke="none"
          d="
M619.081787,456.962372 
	C615.441650,467.633270 610.542480,477.258240 604.642456,486.365997 
	C603.006287,488.891815 602.671753,491.016083 603.421692,494.153290 
	C608.088928,513.677002 610.372192,533.435852 605.579834,553.266846 
	C603.426086,562.179321 598.689331,569.826233 590.909363,575.195801 
	C589.311340,576.298767 588.291504,577.401062 588.703308,579.693054 
	C592.317505,599.807800 592.928467,619.982178 590.314636,640.308411 
	C587.343628,663.413025 581.344543,685.539795 570.533447,706.250977 
	C563.885559,718.986694 554.014893,729.174744 543.975647,739.159485 
	C539.661560,743.450134 536.571350,748.012817 534.554993,753.946899 
	C521.989014,790.928345 497.129852,815.691833 460.391510,829.463196 
	C451.456635,832.812378 442.747986,838.651794 435.930145,846.171082 
	C428.604523,854.250122 420.426514,861.551086 408.938721,861.313904 
	C400.222290,861.133911 394.458405,867.249023 386.789856,869.171631 
	C367.769226,873.940552 349.614655,873.052612 332.341888,863.248169 
	C330.208649,862.037354 328.280518,861.652954 325.814789,861.674194 
	C314.377136,861.772461 305.575439,856.209290 297.973206,848.140442 
	C289.334320,838.971497 278.917877,832.571045 267.220154,827.825562 
	C238.093124,816.009460 216.382660,796.063538 202.875916,767.488342 
	C200.030869,761.469177 197.537796,755.301636 195.922226,748.831909 
	C195.402832,746.751953 194.184311,745.330750 192.774734,743.877136 
	C182.350372,733.126831 171.601700,722.688843 163.747086,709.705688 
	C154.758865,694.848755 149.794083,678.538940 145.717865,661.879944 
	C141.906967,646.305176 140.244736,630.429810 140.253235,614.435120 
	C140.259048,603.479370 140.830307,592.490723 143.255280,581.741150 
	C143.973190,578.558777 143.400024,576.577209 140.696960,574.506653 
	C130.575287,566.753479 125.779663,556.050415 124.672913,543.574463 
	C123.144699,526.347595 124.544838,509.364899 129.341263,492.714874 
	C129.913467,490.728577 129.385864,489.161865 128.304794,487.570160 
	C117.882355,472.224670 111.233574,455.248016 107.669907,437.172699 
	C104.095024,419.040466 104.607300,400.776886 108.059044,382.621979 
	C108.833252,378.549866 109.279366,374.434174 110.509575,370.416901 
	C111.807243,366.179352 109.296616,362.236908 108.167473,358.370850 
	C103.081581,340.957367 102.295227,323.083893 104.117439,305.412354 
	C106.062355,286.550873 110.983292,267.988007 121.017860,251.607834 
	C125.913834,243.615799 126.692429,235.242020 127.865158,226.562820 
	C134.123383,180.246567 155.083618,144.009033 198.945602,123.630157 
	C205.669357,120.506203 211.002655,115.351295 217.077362,111.277496 
	C232.658798,100.828316 249.107880,91.955040 267.422882,87.766838 
	C276.618774,85.663948 282.542877,78.589294 291.070312,75.634491 
	C304.532349,70.969810 317.354675,64.381943 331.482971,61.722179 
	C341.347076,59.865192 351.319153,59.594681 361.169983,62.108513 
	C363.982910,62.826347 366.811493,63.122898 369.571686,62.427597 
	C384.742584,58.606010 399.645782,59.899315 414.137970,65.231194 
	C425.359833,69.359848 437.361084,72.303093 447.219330,78.976295 
	C456.978088,85.582153 467.806793,88.453697 478.488800,92.236572 
	C493.684723,97.617973 507.723236,105.333923 520.304504,115.263557 
	C528.420105,121.668732 537.975098,125.133850 546.552429,130.498581 
	C574.669128,148.084381 591.690369,173.581894 600.336731,205.161423 
	C603.371216,216.244644 605.181458,227.510986 605.362305,239.002686 
	C605.399170,241.343613 606.317749,243.243469 607.468140,245.023666 
	C619.068909,262.976196 625.660767,282.926117 627.770935,303.858856 
	C629.562744,321.633331 629.953918,339.878235 624.111267,357.235443 
	C621.081299,366.236725 622.636719,374.602295 624.325073,383.377960 
	C626.399719,394.161194 627.505798,405.124847 626.984253,416.141876 
	C626.329224,429.979340 623.997070,443.528412 619.081787,456.962372 
M228.395035,531.067444 
	C246.649536,538.605652 263.589630,535.266846 278.286865,523.110779 
	C287.993011,515.082947 295.345001,504.519867 302.841217,494.304840 
	C306.792206,488.920868 311.593384,484.358826 317.336670,480.721954 
	C321.489960,478.091888 325.208771,476.417694 329.191223,481.175842 
	C333.069855,473.051971 338.021790,466.066711 339.823792,457.587067 
	C340.915558,452.449493 344.058960,449.471436 347.083893,450.283356 
	C350.491272,451.197937 352.001373,455.338654 350.784882,460.484497 
	C350.632294,461.129944 350.398529,461.758179 350.174896,462.384613 
	C347.937286,468.652313 345.476837,474.856445 341.929321,480.486511 
	C337.791748,487.052917 337.060852,493.360901 341.611664,500.029999 
	C343.551666,502.873016 343.250580,505.777954 340.203430,507.883698 
	C336.886047,510.176208 334.718048,508.345337 332.628510,505.762299 
	C328.583649,500.762115 327.687439,494.707397 326.775879,488.627045 
	C315.434265,493.050507 310.936768,501.455963 314.326843,511.649445 
	C317.433563,520.990906 327.380737,528.044800 334.910980,525.989014 
	C334.534210,525.063782 334.155762,524.172974 333.806580,523.270752 
	C331.420013,517.104126 335.143707,511.237244 341.745300,511.011169 
	C345.783600,510.872894 348.418457,513.479492 350.910400,516.273499 
	C359.349487,525.735474 371.951447,525.971375 380.685974,516.812012 
	C382.538147,514.869751 384.352295,512.930603 386.832642,511.799316 
	C390.678772,510.045135 394.126038,511.138885 396.934357,513.842651 
	C399.698608,516.503967 400.446899,519.784485 398.407715,523.393005 
	C397.896881,524.296997 396.703735,525.158142 397.632751,526.463562 
	C406.867310,527.405640 418.412689,516.956543 419.546844,506.658325 
	C420.328064,499.564911 412.826843,490.193481 405.505432,489.260101 
	C404.520905,494.968750 403.402161,500.620728 399.850586,505.488556 
	C397.867859,508.206085 395.572052,510.235870 392.379303,508.245880 
	C389.017700,506.150665 388.691772,502.749908 390.911652,499.538971 
	C393.667938,495.551971 394.495514,491.199341 393.259949,486.714386 
	C392.481018,483.886902 390.656433,481.342163 389.263489,478.690277 
	C386.013702,472.503204 382.984253,466.219086 381.295441,459.398010 
	C380.121552,454.656891 381.621765,451.238953 385.276794,450.530975 
	C389.707428,449.672760 390.946930,453.003845 392.118958,456.221558 
	C392.401855,456.998199 392.467804,457.850983 392.701263,458.648956 
	C395.002380,466.514343 399.015900,473.556519 403.138519,481.378418 
	C405.742432,478.235382 408.408325,476.907257 411.738281,478.898773 
	C416.460236,481.722809 421.088501,484.635437 424.765137,488.851776 
	C433.623169,499.010071 441.230255,510.180237 450.455658,520.057373 
	C462.069550,532.491699 477.373718,537.355347 492.703674,534.172852 
	C517.637512,528.996460 536.996338,514.236023 549.055847,490.994720 
	C556.854675,475.964539 560.494385,459.766815 561.778259,443.156555 
	C563.875061,416.029236 563.301392,389.119812 554.281555,362.840637 
	C546.079468,338.944153 540.217346,314.408783 537.633972,289.162842 
	C535.462891,267.945892 533.265320,246.739227 536.183655,225.444138 
	C536.619873,222.260757 535.569214,220.925201 533.123108,219.607330 
	C527.091797,216.357742 521.582397,212.449249 516.682800,207.543472 
	C503.417236,194.261017 497.345795,177.128586 490.752197,160.240891 
	C484.046112,143.065018 475.774567,127.141350 460.083893,116.013611 
	C437.303101,99.857635 412.418915,90.101936 384.418579,88.017357 
	C365.564392,86.613701 346.768158,86.719704 328.342957,90.620529 
	C306.112976,95.326851 285.817596,104.879135 267.985229,119.174530 
	C264.248596,122.170021 260.501068,125.251411 257.660919,129.258026 
	C248.344727,142.400513 242.519547,157.184616 236.910965,172.138397 
	C230.260803,189.869263 221.331177,206.313934 204.437790,216.329239 
	C197.937119,220.183197 194.520370,223.979233 197.120148,231.559769 
	C197.531677,232.759720 197.208755,234.207306 197.248199,235.539734 
	C197.815811,254.714813 196.617111,273.774994 194.204376,292.811462 
	C191.732605,312.313568 187.403030,331.380798 182.033218,350.241669 
	C179.577515,358.867096 175.372925,367.095123 173.633911,375.739563 
	C171.024612,388.710114 169.799179,402.034027 169.315979,415.334534 
	C168.916138,426.340912 169.878601,437.260834 171.121933,448.209900 
	C173.040512,465.105377 177.317749,481.196075 185.863022,495.937317 
	C195.519958,512.596313 210.179764,523.437927 228.395035,531.067444 
M274.964722,662.384888 
	C271.808807,661.238220 270.350616,658.841003 271.174866,655.721924 
	C274.603241,642.748474 279.394653,630.708740 292.732025,624.427429 
	C298.479828,621.720520 302.069122,616.696350 305.562347,610.692566 
	C298.712494,611.912964 292.508118,612.708008 286.510284,614.597046 
	C282.235687,615.943298 277.987640,613.550598 278.083405,609.701782 
	C278.175598,605.996521 280.927917,604.537842 283.959686,603.872009 
	C292.389893,602.020508 300.873871,600.415161 309.324951,598.656616 
	C314.698944,597.538330 319.384613,595.236755 322.501495,590.466980 
	C326.600464,584.194336 330.580963,577.848145 333.756714,571.043823 
	C336.797913,564.527832 339.525055,562.340088 342.821655,563.914001 
	C346.734741,565.782227 346.933533,569.700867 343.435028,576.161133 
	C340.697601,581.216064 337.953369,586.267334 334.936035,591.829163 
	C338.353241,591.904480 340.830841,591.594299 343.353210,590.481018 
	C353.246033,586.114685 358.415375,578.330383 360.207672,567.950317 
	C360.793457,564.557678 362.210144,561.877625 366.199310,561.799927 
	C370.339508,561.719177 371.651398,564.517090 372.004028,567.929138 
	C372.408325,571.840637 373.974426,575.336914 375.671021,578.743225 
	C379.599487,586.630615 389.029968,592.237366 397.029694,591.286865 
	C393.903412,585.458862 390.823975,579.823242 387.846130,574.134460 
	C385.382446,569.427979 385.959076,565.730286 389.496307,564.295105 
	C394.035370,562.453552 395.875092,565.844116 397.436737,569.022278 
	C400.668793,575.599854 404.523285,581.812439 408.131195,588.172668 
	C411.524963,594.155396 416.521179,597.390564 423.073456,598.699585 
	C431.363159,600.355774 439.656921,602.000977 447.910828,603.823425 
	C451.554382,604.627930 454.747467,606.292236 453.748871,610.916992 
	C452.931946,614.700439 449.840576,615.415588 444.915985,614.389465 
	C439.391296,613.238342 434.007660,610.612000 427.352509,611.584045 
	C430.801392,618.173157 435.513123,622.256165 441.305725,625.483093 
	C453.176331,632.096008 458.351746,643.212952 460.865387,655.882996 
	C461.462311,658.891968 460.530182,661.611206 457.028900,662.444702 
	C453.662872,663.246033 451.574249,661.659241 450.514404,658.564819 
	C449.870453,656.684631 449.351349,654.758911 448.841492,652.836243 
	C447.910675,649.326111 446.603027,646.029419 443.939636,643.099365 
	C441.729675,653.989441 454.291168,679.729980 464.713074,685.238708 
	C463.485840,676.823608 466.498779,669.646667 469.599426,662.474243 
	C472.235199,656.377075 475.231750,650.442261 477.260406,644.074341 
	C480.360229,634.343994 482.643524,624.471436 481.960419,614.220093 
	C481.471375,606.880066 480.381256,599.560486 475.687958,592.779175 
	C474.161346,596.656433 472.038025,598.761902 468.249390,598.046631 
	C464.327911,597.306335 464.182770,594.026001 463.959137,591.062439 
	C462.798950,575.689026 455.592407,563.509399 443.933655,553.927368 
	C424.589844,538.029358 402.004272,536.130615 378.348114,539.450684 
	C373.434143,540.140381 368.560822,541.553101 363.553345,540.760681 
	C348.060089,538.308838 332.656097,536.754761 317.000366,540.164429 
	C299.707550,543.930603 286.011078,552.642578 276.148438,567.320679 
	C271.093445,574.843811 269.062531,583.339966 268.120728,592.239807 
	C267.551849,597.615356 263.442017,599.858215 259.489807,597.178772 
	C258.219055,596.317200 257.359314,594.849487 256.134521,593.457947 
	C255.461349,594.545898 254.820908,595.491516 254.277130,596.489807 
	C253.883774,597.211975 253.572830,597.988159 253.303253,598.767334 
	C248.369492,613.028015 249.930298,627.063843 254.092957,641.255798 
	C258.439087,656.073303 268.659760,668.918213 267.915314,686.714050 
	C280.400482,673.256714 288.033142,659.462097 289.381622,641.483643 
	C285.644012,646.348816 283.605591,650.769897 282.759979,655.777771 
	C282.093933,659.722351 280.492981,662.832153 274.964722,662.384888 
M385.592773,690.935608 
	C388.826660,697.389771 391.403320,704.213013 395.743164,710.069275 
	C397.947266,708.929199 398.680084,707.207031 399.551941,705.633179 
	C407.867950,690.621155 411.254700,674.634949 409.090485,657.530457 
	C408.841522,655.562866 408.786469,653.511597 409.045227,651.552429 
	C409.448853,648.496216 411.633057,646.817322 414.513031,646.616577 
	C417.585785,646.402344 418.774200,648.595886 419.242615,651.357239 
	C420.813995,660.620544 421.376190,669.969910 419.515381,679.172302 
	C417.439575,689.437805 420.641632,698.307495 425.299286,707.843384 
	C432.555603,700.079590 438.200897,692.034424 442.348907,682.896362 
	C443.712402,679.892578 443.507965,677.446106 441.764221,674.518372 
	C435.450897,663.918457 431.302551,652.431519 431.824921,640.003540 
	C432.140808,632.487000 428.024597,628.942017 422.032349,624.942322 
	C421.572601,625.761292 421.187561,626.516846 420.740234,627.233582 
	C413.627533,638.629333 401.999786,641.508057 389.939850,643.118103 
	C375.062469,645.104370 360.182251,645.399780 345.179352,643.398438 
	C331.277649,641.544128 318.124115,639.054016 310.209320,625.715942 
	C310.095123,625.523499 309.602386,625.555664 308.647430,625.336060 
	C306.158997,628.839050 300.924530,630.320801 300.950562,636.379578 
	C301.011230,650.504517 296.834991,663.546753 289.961487,675.787170 
	C289.315643,676.937195 288.306427,678.017151 288.820099,679.457153 
	C292.610870,690.084595 298.616272,699.261719 307.215607,707.910217 
	C309.190063,702.710510 310.895538,698.275513 312.556732,693.823914 
	C313.603790,691.018188 313.774963,688.356018 313.249115,685.189636 
	C311.392395,674.009827 310.732178,662.715393 312.838837,651.427246 
	C313.410461,648.364258 315.048309,646.324158 318.133606,646.635132 
	C320.971130,646.921143 322.937164,648.872498 323.217194,651.954407 
	C323.321869,653.106140 323.208282,654.286926 323.105713,655.446655 
	C322.237305,665.268982 322.289612,675.074280 324.429993,684.730591 
	C326.481934,693.987793 330.295074,702.504333 335.831512,710.447144 
	C339.483124,707.561157 340.312164,703.627502 341.979919,700.284424 
	C347.699371,688.819702 353.722137,677.356689 351.034058,663.776428 
	C350.971039,663.457947 351.018311,663.109741 351.056824,662.780273 
	C351.443481,659.471069 353.330566,657.645691 356.628998,657.489624 
	C360.029480,657.328613 360.925507,659.361694 361.466949,662.465942 
	C363.276855,672.842346 361.911926,682.836487 357.472961,692.168335 
	C353.534454,700.448242 352.499420,708.917297 353.072113,717.844971 
	C353.656830,726.959839 356.451782,734.992798 363.230896,741.489990 
	C365.415253,743.583557 366.808350,743.899048 368.887604,741.548157 
	C373.453278,736.385925 377.726379,731.174805 378.403473,723.884766 
	C379.273193,714.520752 381.043488,705.437927 376.253448,696.163757 
	C371.025940,686.042542 368.727997,674.924316 370.549561,663.277100 
	C371.076355,659.908752 372.031158,657.192627 375.856232,657.443665 
	C380.017944,657.716858 381.570892,660.655701 381.055817,664.482483 
	C379.838623,673.526123 381.884064,681.974915 385.592773,690.935608 
M200.861496,646.602356 
	C207.037918,672.824219 222.846741,695.089050 230.741989,721.647461 
	C231.828629,719.652161 232.388077,718.824768 232.755844,717.919556 
	C238.358810,704.128906 240.959717,689.904480 239.302551,674.974304 
	C238.377029,666.635864 238.515244,658.254333 242.379898,650.575256 
	C243.771088,647.810852 244.213715,645.543579 243.235489,642.634460 
	C238.585480,628.805908 237.938980,614.713257 241.087662,600.054138 
	C230.943069,600.438354 221.914764,597.507690 213.603394,592.222778 
	C211.762863,591.052490 210.214615,591.113403 208.859756,592.981934 
	C204.740082,598.663330 201.284195,604.631531 199.133041,611.409973 
	C195.414459,623.127502 198.144806,634.440186 200.861496,646.602356 
M490.369171,637.676880 
	C490.172577,641.269714 486.811157,644.657471 488.845367,648.260315 
	C493.603668,656.687622 493.700378,665.794312 493.161987,674.941162 
	C492.642059,683.773804 492.078552,692.575073 494.236694,701.245728 
	C495.842163,707.695862 497.096191,714.335693 501.499420,720.814209 
	C503.891449,714.422913 505.633728,708.882019 507.993195,703.617737 
	C517.831482,681.667542 529.370850,660.455139 533.767212,636.332214 
	C536.637390,620.583496 533.456543,606.732544 524.163574,593.982117 
	C522.370789,591.522339 520.497375,590.983582 517.832458,592.655640 
	C513.155457,595.590088 508.154999,597.917419 502.737457,599.059814 
	C499.207184,599.804199 495.572632,600.053955 491.777679,600.552490 
	C492.296783,606.874329 493.210358,612.803589 493.151581,618.723267 
	C493.091003,624.824097 492.721100,631.014771 490.369171,637.676880 
M180.800095,553.597351 
	C178.214279,547.636108 177.245453,541.128662 174.976227,534.042419 
	C170.846497,540.004150 165.220520,543.289673 163.026505,549.340942 
	C155.242905,570.808655 150.048050,592.481018 155.082840,615.611938 
	C159.388275,635.392029 169.322327,650.814819 187.059631,660.888306 
	C188.848663,661.904419 190.736786,663.177917 193.160614,662.466919 
	C192.890991,659.754578 192.514450,657.205322 191.657379,654.649963 
	C188.090698,644.015991 186.173187,633.023010 186.394196,621.831177 
	C186.637711,609.499146 190.939804,598.330994 198.621536,588.742615 
	C201.811310,584.761230 201.127090,582.539185 197.650375,579.404724 
	C190.014435,572.520447 184.091629,564.344971 180.800095,553.597351 
M553.697693,655.212036 
	C574.137573,639.018982 579.606567,616.469299 579.293335,592.110107 
	C579.136047,579.876404 575.183655,568.004150 571.778076,556.177917 
	C569.276245,547.489685 563.719604,541.397705 557.252686,535.089600 
	C556.452393,537.142456 555.594604,538.620056 555.303345,540.201965 
	C552.419800,555.861389 545.872437,569.599915 533.949768,580.384033 
	C531.024780,583.029663 531.258972,584.985413 533.300598,587.958984 
	C538.196228,595.089417 542.378601,602.520020 544.557190,611.119324 
	C548.026306,624.812195 544.844421,637.809326 541.726501,650.925415 
	C540.768860,654.953735 538.303162,658.694763 539.012024,663.465393 
	C544.648682,662.006287 548.819275,658.694031 553.697693,655.212036 
M207.250183,532.313049 
	C198.926712,527.405457 191.983063,520.773682 184.276443,513.077759 
	C184.430527,515.963928 184.506073,517.549194 184.601288,519.133240 
	C185.031830,526.296814 186.791656,533.222839 188.257706,540.212219 
	C193.028015,562.954468 207.278198,577.838318 227.779465,587.075317 
	C238.075104,591.714050 244.060852,589.560425 251.381546,580.747803 
	C252.654770,579.215088 253.940491,577.584839 255.539352,576.448242 
	C265.096405,569.654297 267.061829,557.267334 275.926422,549.665710 
	C251.321350,550.363342 228.509918,545.835876 207.250183,532.313049 
M542.499084,545.097046 
	C545.847290,535.011169 547.321045,524.622437 547.936707,512.984558 
	C522.937866,539.821960 492.477844,550.960571 457.213501,549.173462 
	C457.299286,551.516724 458.216705,552.302063 458.934998,553.205811 
	C466.520691,562.750122 472.482513,573.465210 481.457703,582.065125 
	C487.154907,587.524170 492.508972,590.852783 500.142609,588.199829 
	C520.938843,580.972412 535.913269,567.640564 542.499084,545.097046 
M256.810303,686.183838 
	C256.979156,676.532227 254.583038,668.458435 249.993073,664.382812 
	C250.247528,679.241028 250.201279,693.672302 249.587570,708.118103 
	C248.955154,723.004089 255.014694,735.923340 264.539459,747.320068 
	C274.525543,759.268616 278.373657,772.733948 274.709320,788.292542 
	C273.509949,793.385010 272.578705,798.755615 273.013794,804.129089 
	C273.686584,812.437988 276.865082,819.244080 284.856415,823.894653 
	C285.618927,811.658997 287.318604,800.303711 292.523712,789.882446 
	C297.071777,780.776672 296.530151,771.536499 294.071533,762.201172 
	C291.492767,752.409790 288.608398,742.697815 285.783142,732.972778 
	C282.947876,723.213379 281.900787,713.211365 284.180511,703.364014 
	C285.498566,697.670471 283.486053,693.943115 280.394409,689.630188 
	C274.245270,695.288391 268.279663,700.570312 261.416382,704.716187 
	C258.787262,706.304443 256.493805,706.390076 254.203537,704.133423 
	C252.107224,702.067993 251.736389,699.791443 253.298401,697.377136 
	C255.347305,694.210266 255.959412,690.618958 256.810303,686.183838 
M441.711273,749.132874 
	C440.702698,752.477600 439.567932,755.790344 438.709076,759.173096 
	C436.065369,769.585815 434.405518,779.788513 439.877960,790.140381 
	C443.019958,796.083862 444.505707,802.846863 445.998871,809.533020 
	C447.038208,814.187134 446.133850,819.041260 447.773468,823.957947 
	C456.533203,817.794617 460.304901,809.675354 459.401428,799.654419 
	C459.048584,795.740723 458.419739,791.703308 457.492920,787.913452 
	C453.527252,771.697021 458.526611,758.142212 468.709717,745.798523 
	C477.551544,735.080688 483.288422,722.969788 482.562714,708.837341 
	C481.930634,696.528381 481.988983,684.241821 482.016632,671.940308 
	C482.022614,669.269531 482.017487,666.598694 482.017487,663.927917 
	C475.783020,674.334473 472.811829,684.930664 478.281342,696.230042 
	C479.614136,698.983398 481.393982,701.351746 478.124847,704.137085 
	C475.046722,706.759705 472.558655,705.871826 469.582458,704.029541 
	C463.224792,700.094055 457.688660,695.106445 451.838165,690.057190 
	C448.725555,694.207947 445.981354,697.688904 448.127441,702.990295 
	C449.087402,705.361694 448.907257,708.227783 449.077484,710.880066 
	C449.918427,723.982239 445.840485,736.159424 441.711273,749.132874 
M241.757523,729.313293 
	C240.021271,726.682800 239.594498,729.196350 238.976440,730.107971 
	C236.458954,733.821106 234.159653,737.687988 231.529266,741.316467 
	C230.148209,743.221619 228.190384,744.802002 225.529541,743.691101 
	C223.157700,742.700806 222.090683,740.701294 221.888641,738.169678 
	C221.696030,735.756165 221.991470,733.230591 220.428925,730.873169 
	C219.055222,739.278992 217.573730,747.595337 213.514389,754.799927 
	C211.660538,758.090149 211.382111,760.103027 212.883423,763.251160 
	C222.634964,783.699463 237.335342,799.528564 256.911499,810.842957 
	C258.527466,811.776917 260.127930,813.250427 262.779266,812.545044 
	C261.195435,802.539185 262.758514,792.703735 264.693970,782.942261 
	C266.771515,772.464294 263.486633,763.641357 257.137421,755.552002 
	C250.959061,747.680420 245.162582,739.568665 241.757523,729.313293 
M485.100983,741.455811 
	C481.222229,746.861145 477.358398,752.277161 473.460754,757.668884 
	C469.240234,763.507263 466.628845,769.877563 467.222290,777.214539 
	C468.180420,789.059875 471.452545,800.727783 469.266632,813.130615 
	C470.593719,812.840454 471.282593,812.832520 471.829407,812.549744 
	C494.115784,801.023315 510.074615,783.528564 520.488281,760.831848 
	C520.962708,759.797791 521.593689,758.560425 520.713135,757.517578 
	C514.331177,749.958801 514.290588,740.164856 511.388123,731.706421 
	C511.242737,733.028564 511.114075,734.689270 510.868073,736.332397 
	C510.389313,739.530823 509.774353,742.940308 506.130981,743.852600 
	C502.284668,744.815796 500.522614,741.536987 498.757294,738.999878 
	C496.319580,735.496338 494.182861,731.783325 491.530792,727.542053 
	C489.274353,732.437378 487.349030,736.614258 485.100983,741.455811 
M327.549683,603.709839 
	C320.104218,605.465576 316.676025,614.775696 320.813995,621.550415 
	C324.754974,628.002563 331.093994,630.524536 337.911102,631.528748 
	C353.427216,633.814392 369.077423,634.275818 384.703033,632.814697 
	C390.281647,632.293152 395.875153,631.486389 401.297363,629.669434 
	C412.833069,625.803772 416.430756,614.844910 409.272003,605.934814 
	C406.592560,602.599792 403.518829,604.115723 400.612152,603.843994 
	C390.173279,602.867920 379.708282,602.042725 369.406433,605.036499 
	C367.113007,605.703003 364.797333,605.760803 362.517487,604.999084 
	C357.052795,603.173401 351.416290,602.935974 345.733887,603.141724 
	C339.927124,603.351990 334.121979,603.607056 327.549683,603.709839 
M583.565735,356.942810 
	C583.812927,354.464539 584.200378,351.990936 584.283081,349.507202 
	C584.649109,338.519592 587.483643,328.385651 579.463562,317.234802 
	C563.099182,294.482178 555.156860,267.628906 550.099365,240.102158 
	C549.323242,235.877716 548.735779,231.618622 547.899963,226.362396 
	C539.016418,256.979401 560.291870,370.511902 577.741699,388.162079 
	C579.636841,378.004303 581.521484,367.902679 583.565735,356.942810 
M155.172989,314.556793 
	C153.765701,316.615204 152.804764,319.462555 150.856491,320.564819 
	C147.013611,322.739014 147.153214,325.870422 146.953201,329.425659 
	C145.961639,347.052704 150.917297,363.966705 152.973999,381.223633 
	C153.270279,383.709595 153.984467,386.145782 154.505264,388.605011 
	C179.053833,337.221558 188.207016,283.303650 184.689011,227.041321 
	C182.277420,242.176315 179.045563,257.083527 174.224533,271.650757 
	C169.356125,286.361237 163.168060,300.449066 155.172989,314.556793 
M596.158508,344.460449 
	C594.562012,355.116241 593.060486,365.787537 591.327087,376.420990 
	C590.523438,381.350372 588.944153,386.356049 590.384827,391.217590 
	C593.445190,401.544617 594.317810,412.067932 594.014648,422.706512 
	C593.702026,433.678253 592.753784,444.655792 593.429749,455.617126 
	C593.835876,462.202393 594.587830,468.895050 598.096741,475.837158 
	C599.515930,473.382416 600.478638,471.857056 601.306824,470.261871 
	C606.219299,460.800049 609.700928,450.867981 612.447144,440.526428 
	C616.900146,423.757599 616.608215,406.897888 614.263794,390.077118 
	C612.416443,376.823242 609.317871,363.729126 605.802368,350.780121 
	C603.760376,343.258453 601.474365,335.820129 597.425049,329.041870 
	C597.175049,333.995148 597.058228,338.806396 596.158508,344.460449 
M138.710464,436.540405 
	C138.344742,423.408508 137.098953,410.159943 140.363556,397.285034 
	C141.910721,391.183319 142.719757,385.401184 141.520950,379.227051 
	C138.270111,362.484833 135.584290,345.659485 134.914612,328.542755 
	C133.788345,329.120636 133.588791,330.332489 133.166290,331.348419 
	C126.648827,347.019318 123.347649,363.553162 119.816093,380.060577 
	C114.774704,403.625275 114.900490,426.919708 122.333939,449.952362 
	C125.165291,458.725403 128.472214,467.344757 134.096924,475.077515 
	C135.816193,472.958893 136.254211,470.937988 136.824631,468.815704 
	C139.600601,458.487701 138.554489,447.981903 138.710464,436.540405 
M194.282852,676.284607 
	C177.177292,670.197510 164.017395,659.098633 153.629364,643.191345 
	C158.673050,683.399780 174.598740,716.413513 206.888763,741.044067 
	C209.883743,731.477783 210.589233,721.888977 211.643997,712.366882 
	C212.398911,705.552002 211.044281,699.202026 207.573700,693.232361 
	C205.825653,690.225525 204.287201,687.051147 203.059143,683.799500 
	C201.583710,679.892944 199.110397,677.361938 194.282852,676.284607 
M532.837158,678.242798 
	C528.479126,683.980103 526.026978,690.713257 522.975342,697.132446 
	C521.833557,699.534302 520.586243,701.916199 520.776306,704.704346 
	C521.273560,711.998779 521.357605,719.355713 522.435181,726.563843 
	C523.120850,731.150391 522.692566,736.251892 525.961975,740.265076 
	C551.038513,725.914368 581.559143,669.399353 577.375183,645.092651 
	C571.804077,653.166626 565.259949,660.113892 557.451904,665.983582 
	C550.151550,671.471680 541.934448,674.841797 532.837158,678.242798 
M549.662415,166.878952 
	C554.467529,167.277435 559.067383,169.157272 563.969971,168.857239 
	C565.708679,168.750839 567.365479,168.338013 568.166992,166.647171 
	C568.981201,164.929535 567.515442,163.848663 566.608948,162.750732 
	C562.037659,157.214111 556.962158,152.167938 551.399963,147.628357 
	C538.370911,136.994736 523.493225,130.344498 507.026093,127.144905 
	C502.941437,126.351242 501.081635,124.096252 502.911743,120.031380 
	C503.949860,117.725571 502.971313,116.629646 501.200043,115.614616 
	C499.612579,114.704910 498.064087,113.725731 496.462433,112.842384 
	C483.213135,105.534927 469.672699,99.051460 453.107849,97.794983 
	C457.733948,100.995224 461.380707,103.795204 465.286438,106.169167 
	C478.280579,114.067253 486.659729,126.874367 497.946472,136.630112 
	C513.171875,149.790329 528.488464,162.388199 549.662415,166.878952 
M243.921021,108.421051 
	C238.788879,111.397820 233.251923,113.710892 228.636475,117.391319 
	C231.113495,125.273407 230.881088,125.933479 222.910843,127.628166 
	C199.533524,132.598755 180.542862,144.609543 165.484482,163.010574 
	C162.713425,166.396759 163.526779,168.283539 167.837433,168.787598 
	C169.313507,168.960205 170.855759,169.002426 172.318832,168.780945 
	C183.040146,167.157806 193.376602,164.215973 203.191498,159.542404 
	C214.165710,154.316849 222.685501,145.789673 232.103134,138.420319 
	C242.650970,130.166580 250.026093,118.744919 260.800903,110.818901 
	C266.316406,106.761650 271.855164,102.735954 277.820221,98.376755 
	C265.293579,98.285904 255.139648,103.861519 243.921021,108.421051 
M358.422455,827.137329 
	C361.053436,830.685852 362.672913,834.964355 365.911896,837.995972 
	C366.480194,837.777649 366.912567,837.752625 367.059082,837.535095 
	C373.458710,828.033997 379.995087,818.618469 386.118530,808.941711 
	C388.137421,805.751343 387.918945,802.397095 385.035400,798.950745 
	C379.846863,792.749329 377.350647,785.103943 375.706726,777.257080 
	C374.370453,770.878601 373.266479,764.451416 371.957855,757.506531 
	C367.528748,761.637207 363.578125,761.116882 359.609833,756.852600 
	C359.459259,759.157227 359.432007,760.644531 359.255035,762.113831 
	C357.759369,774.531738 355.430084,786.744507 348.458496,797.439514 
	C344.279480,803.850342 343.994049,806.307434 348.295471,812.660767 
	C351.462341,817.338379 354.747955,821.935608 358.422455,827.137329 
M504.040924,156.670395 
	C502.928009,155.729904 501.815063,154.789413 499.903351,153.173935 
	C507.829895,173.989410 513.810913,194.931061 533.392273,207.035645 
	C544.836182,214.109879 557.722290,217.608154 571.981567,219.384827 
	C570.565186,216.020294 569.688965,213.531235 568.503967,211.199127 
	C564.728149,203.768555 561.547241,196.063431 559.159851,188.121323 
	C557.598999,182.928604 556.232483,179.685455 549.668274,178.442596 
	C532.975769,175.281998 517.914734,167.786102 504.040924,156.670395 
M222.195618,178.664902 
	C225.084045,171.255630 228.894958,164.165100 230.626022,155.782288 
	C227.326416,156.803665 225.401474,158.670044 223.311310,160.247086 
	C210.554840,169.871826 196.243256,176.068100 180.615219,179.051788 
	C177.365662,179.672195 175.558350,180.729477 174.583603,183.839493 
	C171.052185,195.106812 166.653549,206.030777 161.238358,216.537643 
	C160.821320,217.346786 160.155975,218.338562 161.227158,219.226959 
	C190.020477,215.047409 210.152359,204.925400 222.195618,178.664902 
M583.728455,478.662384 
	C583.274231,475.529022 584.501892,472.547150 584.106995,469.285278 
	C583.010986,460.231750 580.917419,451.199799 581.977661,441.993439 
	C582.932678,433.701202 583.161621,425.394745 582.996826,417.068512 
	C582.959106,415.165222 583.432800,412.674286 580.608398,412.315521 
	C577.387146,411.906372 575.627014,409.655090 573.577454,406.418304 
	C575.354248,429.380249 572.379578,459.403992 564.426575,484.729645 
	C560.220337,498.123993 560.163025,512.307251 565.408752,525.880310 
	C566.345032,528.302979 567.603088,531.448608 570.526245,531.384033 
	C573.323853,531.322205 573.751770,527.981140 574.750793,525.766174 
	C581.373474,511.082520 582.495972,495.325439 583.728455,478.662384 
M148.190948,473.555389 
	C149.736435,493.755493 150.269073,514.188843 161.130630,532.561951 
	C164.950333,530.266052 166.385880,527.069092 167.548813,523.773560 
	C171.609528,512.266418 170.717072,500.445801 168.816833,488.802643 
	C167.085052,478.191711 162.558670,468.219452 161.008759,457.466370 
	C158.793884,442.099884 157.581512,426.736450 158.769852,411.223206 
	C158.858200,410.070038 159.521881,408.605743 157.866806,407.503754 
	C156.663147,409.394073 155.411606,411.463623 153.145264,411.736572 
	C149.168777,412.215454 149.178070,414.867432 149.034241,417.855225 
	C148.703934,424.715973 149.723312,431.485596 150.179016,438.289856 
	C150.951477,449.823669 149.355301,461.199463 148.190948,473.555389 
M566.620422,230.138336 
	C560.475403,228.828293 558.959656,230.398102 560.548279,236.999954 
	C563.300171,248.435638 565.527954,260.012634 569.567932,271.113312 
	C573.180054,281.038513 576.959229,290.880463 582.649231,301.014526 
	C588.813721,289.374969 595.893005,279.195953 597.507019,266.718201 
	C598.019470,262.756714 599.444336,257.775146 596.502014,254.721527 
	C592.654053,250.727951 589.155273,246.500107 586.378235,241.869934 
	C582.278076,235.033722 577.735474,229.720886 568.846558,230.821655 
	C568.397766,230.877228 567.900208,230.539352 566.620422,230.138336 
M166.413467,259.838806 
	C168.259186,250.010101 171.926804,240.471603 171.656784,229.529922 
	C165.386932,230.402115 159.697540,231.130890 154.032898,232.017883 
	C152.218124,232.302048 151.526337,234.096924 150.566681,235.415756 
	C146.656891,240.788940 143.573441,247.088837 138.699524,251.346024 
	C133.544861,255.848465 133.819489,260.816101 134.663376,266.035492 
	C135.526535,271.374115 136.756653,276.749481 139.375107,281.662140 
	C142.670486,287.844727 145.791031,294.120544 149.349915,301.064178 
	C150.310867,299.466797 150.649826,298.933472 150.959702,298.383759 
	C157.681747,286.459869 161.872772,273.518341 166.413467,259.838806 
M435.078156,733.600342 
	C436.364349,726.576843 439.808868,719.737793 437.573730,711.430908 
	C432.812469,715.805359 429.899780,720.268616 426.475739,724.292419 
	C423.322540,727.998047 419.791870,727.837769 417.488953,724.161621 
	C416.499756,722.582581 416.228333,720.782654 415.782837,719.001831 
	C414.847748,715.263977 415.043274,711.066650 411.786377,707.747498 
	C403.687805,716.941833 400.025482,728.083923 401.818176,739.125793 
	C403.898987,751.942566 413.880707,760.217224 425.388641,766.863708 
	C428.670013,755.625244 431.769714,745.008911 435.078156,733.600342 
M329.665588,726.082825 
	C328.136047,718.899597 324.084137,713.050110 320.003296,706.089661 
	C318.595764,710.799622 317.418396,714.256897 316.546570,717.789673 
	C315.637268,721.474365 315.617584,725.968140 310.867798,726.737183 
	C306.428314,727.455933 305.025482,723.010498 302.673981,720.426941 
	C300.091980,717.590149 298.375183,713.926331 293.853180,711.406799 
	C293.834381,731.312195 303.395508,748.085938 305.935791,766.318115 
	C307.080963,766.318115 307.624817,766.460510 308.035278,766.287109 
	C308.790039,765.968262 309.511292,765.523193 310.168579,765.027466 
	C322.830933,755.477600 333.998291,745.147217 329.665588,726.082825 
M316.356659,790.845032 
	C317.969025,794.939880 317.573090,799.702209 320.272858,803.429077 
	C333.431274,799.413757 339.990051,793.315125 344.062561,781.396057 
	C344.702820,779.522278 345.244598,777.611023 345.748657,775.695190 
	C349.538452,761.290405 350.344696,746.975281 344.512543,732.699829 
	C343.148376,733.975403 343.240723,735.582947 342.892700,736.982605 
	C340.009827,748.576355 334.906952,759.332520 325.237244,766.256348 
	C316.700806,772.368652 315.116638,779.767212 316.226471,788.960693 
	C316.266205,789.289795 316.259705,789.624451 316.356659,790.845032 
M397.513214,795.984680 
	C402.081146,798.572144 406.649109,801.159607 411.421692,803.863037 
	C416.277252,795.943542 415.772491,787.784424 415.950531,779.675415 
	C416.040192,775.591919 414.681610,772.821777 411.402985,770.421448 
	C402.037628,763.564880 395.551941,754.527832 391.315918,743.687256 
	C390.218048,740.877625 390.507629,737.399719 388.037567,735.104553 
	C385.924011,735.967468 385.837372,737.831787 385.459290,739.329224 
	C381.796753,753.834778 383.752930,767.991821 388.474121,781.897522 
	C390.228607,787.065186 391.837952,792.433044 397.513214,795.984680 
M329.271790,844.250122 
	C334.242493,852.324768 341.079224,857.642700 350.747162,858.759521 
	C353.592987,859.088257 357.049683,861.632935 359.131958,858.789490 
	C361.361572,855.744934 359.240845,852.026611 357.950989,848.850586 
	C352.096771,834.435608 341.299164,823.059143 333.934845,809.570557 
	C330.624542,810.185486 328.170532,811.900940 325.991364,813.930786 
	C318.459534,820.946655 317.995575,824.191528 322.526489,833.554138 
	C324.278931,837.175354 326.445648,840.486572 329.271790,844.250122 
M376.492889,844.004761 
	C374.140686,848.899841 371.506744,853.724976 372.487793,860.181458 
	C381.826691,859.024109 390.875519,858.009521 397.662018,850.827332 
	C403.653900,844.486084 408.326355,837.227356 411.732330,829.170105 
	C412.600739,827.115723 413.338318,824.871521 412.353668,822.884827 
	C409.359314,816.843262 405.568970,811.489868 398.225708,809.629639 
	C392.164062,821.660217 382.536255,831.235779 376.492889,844.004761 
M117.164543,295.537140 
	C113.752922,311.094696 115.357185,326.705688 116.320259,342.395264 
	C121.620010,328.869415 127.138306,315.724609 136.560547,304.638275 
	C138.249557,302.650940 137.003098,300.853058 136.023651,299.152588 
	C131.154099,290.698517 126.623047,282.098480 124.191566,271.785645 
	C120.264175,279.506409 119.201630,287.240784 117.164543,295.537140 
M616.731506,306.789246 
	C615.569702,294.874725 612.951050,283.346863 607.880249,271.057373 
	C605.746826,281.606049 601.754456,289.804962 596.916809,297.594666 
	C594.737183,301.104340 595.025757,304.018036 597.549500,307.145813 
	C603.126038,314.057159 606.901489,322.031036 610.857849,329.915680 
	C612.733398,333.653442 612.689697,338.107056 615.543945,342.308685 
	C617.889526,330.277893 617.289978,319.002197 616.731506,306.789246 
M369.094604,74.053070 
	C364.991547,74.899620 361.249054,73.254578 357.361237,72.449173 
	C334.708069,67.756310 315.498688,78.155388 295.034698,86.386627 
	C299.796753,87.778503 299.813660,87.820877 303.443695,86.372978 
	C316.195618,81.286697 329.560120,77.770470 343.085876,77.140503 
	C372.278076,75.780884 401.650482,74.829971 429.442474,86.831810 
	C431.796875,87.848557 434.150574,87.997566 436.773010,86.082954 
	C427.021301,82.255630 417.794952,78.051086 408.199219,75.013374 
	C395.686127,71.052101 382.840790,69.511375 369.094604,74.053070 
M135.069260,537.287048 
	C136.369873,547.143433 136.515106,557.467163 146.028778,564.818848 
	C148.587936,557.521301 150.924469,550.858337 153.261230,544.195374 
	C153.905777,542.357544 152.737579,541.016724 151.981415,539.570251 
	C148.442169,532.800171 145.379196,525.844910 143.078735,518.534668 
	C141.213394,512.607117 140.276688,506.490814 138.899384,500.389801 
	C135.854767,512.241089 135.196396,524.261902 135.069260,537.287048 
M590.015381,561.334839 
	C592.760803,557.702698 594.730225,553.628845 595.578064,549.213135 
	C598.756592,532.659668 596.518921,516.300171 593.505676,498.808502 
	C592.867493,500.645081 592.451904,501.373779 592.373108,502.137268 
	C590.973755,515.704285 586.472900,528.259583 580.027405,540.183716 
	C579.281250,541.564026 578.889954,543.069824 579.352905,544.509338 
	C581.460876,551.064758 583.698669,557.578430 585.864868,564.032776 
	C587.870117,563.911987 588.652588,562.777588 590.015381,561.334839 
M298.246857,805.703735 
	C292.055786,827.901306 301.943939,842.353516 318.758240,848.978027 
	C318.758240,848.814941 318.820221,848.615112 318.748779,848.494324 
	C317.904053,847.065674 317.041382,845.647644 316.179749,844.229065 
	C309.629364,833.444458 304.939209,822.309143 309.452026,809.375061 
	C309.711456,808.631531 309.779419,807.629395 309.499329,806.920288 
	C307.513611,801.893250 306.483398,796.594788 305.200470,790.479919 
	C300.946167,795.026123 299.951294,800.106018 298.246857,805.703735 
M424.053436,825.933533 
	C422.164795,834.172852 418.050385,841.448425 413.963806,848.809692 
	C424.888245,843.600830 433.840515,836.416321 435.460175,823.884949 
	C436.892578,812.802490 434.503815,802.140686 427.865845,792.714966 
	C425.401855,798.075562 422.153015,803.431091 423.010193,808.729431 
	C423.898834,814.222229 424.020721,819.588989 424.053436,825.933533 
M588.399902,203.201080 
	C584.711243,194.086060 581.938477,184.522720 575.965210,176.527756 
	C568.623779,180.096161 568.679993,180.078979 570.779114,186.944809 
	C574.141357,197.941879 579.141724,208.234283 584.559448,218.301132 
	C587.037903,222.906357 589.319580,227.797852 594.061523,232.713196 
	C592.655701,222.042862 590.942261,212.953354 588.399902,203.201080 
M157.317566,196.955399 
	C159.655334,191.516342 162.745010,186.321060 163.040375,180.276276 
	C156.398300,176.729614 155.636932,176.692230 153.393127,180.779388 
	C144.599915,196.796509 140.360931,214.133041 138.300156,233.572723 
	C146.214523,221.416122 152.879028,210.207916 157.317566,196.955399 
M280.334229,535.531250 
	C279.700043,535.984802 279.065857,536.438354 277.471558,537.578552 
	C290.757324,538.178284 301.543488,533.590576 313.169189,529.199463 
	C308.738068,524.048096 305.640137,519.015198 302.831604,513.393738 
	C294.619873,520.362915 289.578339,529.636414 280.334229,535.531250 
M448.603485,537.499084 
	C450.199158,537.462952 451.838470,538.100342 453.992706,536.951965 
	C443.758148,531.285950 438.293488,521.165833 429.635468,513.373840 
	C426.740356,519.203796 423.335205,524.196350 419.009888,529.398071 
	C428.968384,532.737000 437.800385,537.034546 448.603485,537.499084 
M371.074738,592.806458 
	C371.140930,589.284363 368.505890,587.646851 365.980682,585.184143 
	C364.282959,587.923401 361.453308,589.336609 360.806488,592.522888 
	C364.041992,595.320068 367.273743,594.524353 371.074738,592.806458 
z"/>
    <path fill="#ffffff" opacity="1.000000" stroke="none"
          d="
M152.732880,127.262360 
	C145.920105,120.732491 138.828690,114.947891 134.168945,106.852715 
	C144.298187,114.650528 153.423981,123.441376 160.769440,134.022751 
	C157.460526,132.652298 155.323105,129.965347 152.732880,127.262360 
z"/>
    <path fill="#ffffff" opacity="1.000000" stroke="none"
          d="
M358.428833,249.369629 
	C364.494293,252.965439 370.065552,250.713242 375.545349,249.017929 
	C383.496429,246.558075 391.277405,247.280609 398.236023,251.359009 
	C406.802612,256.379822 414.886017,255.194183 423.488617,251.904907 
	C430.544983,249.206879 437.283875,245.498352 445.331848,245.705978 
	C452.835236,245.899597 459.273102,248.625977 465.350952,252.462479 
	C468.464935,254.428101 470.707855,257.354645 468.176941,261.280304 
	C465.707367,265.110901 462.474731,263.990204 459.512878,261.989716 
	C450.484467,255.891678 441.338837,255.962616 431.660431,260.540222 
	C426.732239,262.871124 421.466309,264.812958 416.142639,265.901031 
	C409.362061,267.286896 402.694519,266.360992 396.381775,262.802185 
	C387.854523,257.994934 378.992889,257.450592 370.311737,262.626465 
	C367.043488,264.575073 364.244934,264.360687 361.068512,262.285004 
	C354.409485,257.933655 346.448883,257.356750 340.143372,260.978668 
	C326.689606,268.706573 313.997314,266.877869 301.067383,260.840576 
	C291.185242,256.226379 281.716461,255.862030 272.388000,262.167694 
	C269.300751,264.254547 266.018066,264.724335 263.777527,260.959900 
	C261.531982,257.187134 263.795715,254.555542 266.761169,252.623993 
	C277.755371,245.462936 289.212738,243.113022 301.625580,249.193344 
	C305.786682,251.231598 310.247162,252.767654 314.708252,254.058212 
	C321.025909,255.885849 327.044159,254.976959 332.994080,251.854538 
	C340.882721,247.714691 349.267517,246.057739 358.428833,249.369629 
z"/>
    <path fill="#ffffff" opacity="1.000000" stroke="none"
          d="
M432.463806,278.970093 
	C442.699066,278.060089 451.746948,280.367523 460.121613,285.382690 
	C462.255249,286.660431 464.405273,288.072479 464.669983,290.956024 
	C464.889648,293.349274 463.908325,295.168365 461.990906,296.500275 
	C459.814362,298.012146 457.818817,297.000214 455.952667,295.843109 
	C447.459473,290.576965 438.330841,288.839722 428.684052,291.502319 
	C424.077026,292.773895 419.563232,294.628906 415.273865,296.757111 
	C404.628510,302.038818 393.734894,303.476227 382.508026,299.240509 
	C370.744232,294.802246 359.125305,295.724518 347.602112,299.727600 
	C338.104950,303.026825 329.034821,302.101776 320.027191,298.125397 
	C315.322540,296.048553 310.625946,293.909912 305.786774,292.190216 
	C295.746582,288.622253 286.079010,289.879608 277.024719,295.363129 
	C273.807709,297.311401 270.687378,298.462616 268.457550,294.616974 
	C266.359711,290.998932 267.752502,287.789429 271.331818,285.781219 
	C281.629547,280.003693 292.207794,277.151154 304.307892,280.044373 
	C311.901886,281.860168 318.500824,285.550598 325.535858,288.390686 
	C332.030914,291.012726 338.267822,291.344818 344.916351,289.101562 
	C359.028259,284.340057 373.214905,283.853760 387.341522,289.231201 
	C395.470398,292.325531 403.025116,290.026215 410.446960,286.700653 
	C417.436371,283.568817 424.439392,280.488800 432.463806,278.970093 
z"/>
    <path fill="#ffffff" opacity="1.000000" stroke="none"
          d="
M231.284866,399.402161 
	C251.725693,376.167480 284.343933,372.342468 309.940887,385.681854 
	C316.548462,389.125275 322.070251,393.781433 325.220093,400.864960 
	C326.437347,403.602417 326.224365,405.687439 324.621399,408.270203 
	C317.600067,419.583252 307.349792,426.045105 294.574341,428.722107 
	C270.845367,433.694427 249.733505,428.654114 231.900955,411.780212 
	C226.624634,406.787567 226.637009,405.535248 231.284866,399.402161 
M311.632935,407.166809 
	C315.020294,403.675781 313.052856,401.155212 309.998230,399.066315 
	C292.272064,386.944550 273.637970,385.919434 254.356186,394.891541 
	C249.273071,397.256775 244.698013,400.468658 241.335251,405.066772 
	C250.099716,414.326263 264.524567,419.151978 280.409180,418.999420 
	C292.113892,418.887024 302.796356,416.579865 311.632935,407.166809 
z"/>
    <path fill="#ffffff" opacity="1.000000" stroke="none"
          d="
M431.926758,427.209137 
	C420.645294,423.814697 412.868591,416.621887 406.758301,407.323914 
	C405.253876,405.034637 405.895172,402.901611 407.007904,400.735931 
	C412.506500,390.034546 421.912231,384.564880 432.983459,381.336365 
	C458.095459,374.013306 480.281372,378.785950 499.058228,397.429047 
	C506.059814,404.380768 506.103119,406.723022 498.794952,413.172516 
	C479.324921,430.354950 456.997803,434.481537 431.926758,427.209137 
M481.680237,412.200745 
	C483.337891,411.101532 485.045319,410.069824 486.643951,408.890656 
	C491.613556,405.225220 491.597870,404.670990 486.719330,400.561951 
	C469.157349,385.770203 440.047180,385.453705 422.685394,398.650360 
	C418.208801,402.052979 417.890503,404.468018 421.670990,408.420624 
	C427.045746,414.040070 433.965454,417.507538 441.334381,418.388550 
	C454.926758,420.013550 468.599396,419.863098 481.680237,412.200745 
z"/>
    <path fill="#ffffff" opacity="1.000000" stroke="none"
          d="
M340.520081,216.103119 
	C347.902924,215.251663 354.582428,216.489044 361.080231,218.805374 
	C364.013794,219.851135 367.008209,220.337982 369.876617,219.254852 
	C379.680359,215.552841 389.683197,214.163895 399.587067,218.028610 
	C407.850281,221.253098 415.323517,218.615646 422.875214,216.271301 
	C432.974884,213.135941 442.228271,215.739304 451.517212,219.408478 
	C455.080902,220.816132 456.123810,223.319473 454.982910,226.513931 
	C453.779053,229.884628 450.821075,230.673096 447.569061,229.672745 
	C442.811981,228.209442 438.206024,226.384109 433.088409,226.206772 
	C426.705200,225.985519 421.060913,228.647827 415.166565,230.276657 
	C411.321167,231.339310 407.621002,231.673141 403.911255,230.258591 
	C392.675568,225.974442 381.555634,226.298386 370.396851,230.624100 
	C367.403229,231.784607 364.091248,231.799164 361.102509,230.555115 
	C351.344208,226.493271 341.529297,225.590485 331.514008,229.461288 
	C325.285400,231.868576 319.115509,231.545090 313.027283,229.032425 
	C303.937256,225.280884 294.900452,225.337433 285.865509,229.189392 
	C285.256561,229.449020 284.599396,229.609528 283.951965,229.762451 
	C280.726227,230.524353 278.185608,229.413406 277.071838,226.365601 
	C276.025085,223.501083 277.201569,221.065445 280.031647,219.773941 
	C289.330566,215.530380 299.260803,212.470230 309.013458,216.340149 
	C319.735107,220.594543 329.747162,219.333069 340.520081,216.103119 
z"/>
    <path fill="#ffffff" opacity="1.000000" stroke="none"
          d="
M416.369598,347.205750 
	C429.227570,341.785065 442.313660,340.493439 455.725952,341.349152 
	C470.684601,342.303497 484.307037,346.911621 496.280670,356.057007 
	C497.728607,357.162933 499.062256,358.424316 500.403198,359.663086 
	C503.045563,362.104065 504.190338,365.007599 501.586884,367.969879 
	C499.195770,370.690582 496.308807,370.166199 493.568054,368.083862 
	C490.529755,365.775482 487.593414,363.274200 484.330872,361.329742 
	C470.369598,353.008820 455.232605,350.728149 439.245361,352.820160 
	C431.296753,353.860291 423.616943,355.499725 416.576752,359.607269 
	C413.781525,361.238159 410.975494,360.494293 409.142548,357.754700 
	C407.183014,354.825958 408.353516,352.330780 410.907318,350.442444 
	C412.499542,349.265137 414.312958,348.386963 416.369598,347.205750 
z"/>
    <path fill="#ffffff" opacity="1.000000" stroke="none"
          d="
M254.755463,357.694214 
	C248.885971,360.291901 243.769196,363.344910 239.347855,367.513550 
	C236.595001,370.109009 233.498154,371.079987 230.597198,367.948914 
	C227.593307,364.706757 229.210938,361.933411 231.997665,359.392212 
	C243.616348,348.797089 257.461578,343.513489 272.914764,341.694519 
	C286.009369,340.153168 298.762115,341.561432 311.309662,345.303375 
	C315.161102,346.451904 318.730743,348.307190 321.788300,350.963684 
	C324.042877,352.922607 324.943573,355.248932 322.999390,357.996918 
	C321.153198,360.606384 318.511749,361.143890 315.942749,359.771179 
	C301.364807,351.981415 285.935822,350.803619 269.917603,353.266022 
	C264.769073,354.057495 259.981781,355.907227 254.755463,357.694214 
z"/>
    <path fill="#ffffff" opacity="1.000000" stroke="none"
          d="
M426.462646,429.433411 
	C440.678864,439.400208 455.951599,439.507721 471.695343,435.846313 
	C475.077209,435.059845 478.323822,433.706787 481.661377,432.710754 
	C485.106689,431.682526 488.108612,432.211945 489.365692,436.017059 
	C490.487579,439.412994 488.399078,441.352753 485.554443,442.559540 
	C465.254456,451.171570 445.050201,452.658295 425.066833,441.586548 
	C423.615265,440.782318 422.226440,439.845947 420.884552,438.866699 
	C418.205811,436.911896 416.525269,434.254059 418.397430,431.168243 
	C420.094482,428.371124 422.932007,427.320129 426.462646,429.433411 
z"/>
    <path fill="#ffffff" opacity="1.000000" stroke="none"
          d="
M260.177185,435.824097 
	C276.183472,439.598267 291.243866,439.345764 305.071259,429.864594 
	C308.032349,427.834229 311.385040,427.452759 313.477448,430.626312 
	C315.637543,433.902588 314.177521,436.952240 311.006470,439.172852 
	C297.895142,448.354614 283.265900,450.850739 267.735535,448.631744 
	C261.832245,447.788269 255.966721,446.384064 250.339615,444.257050 
	C248.791992,443.672058 247.278000,442.977570 245.801758,442.228516 
	C242.915222,440.763794 242.287354,438.286346 243.304352,435.470306 
	C244.405273,432.421814 246.884430,431.669556 249.806976,432.515350 
	C253.159805,433.485687 256.455872,434.652100 260.177185,435.824097 
z"/>
    <path fill="#ffffff" opacity="1.000000" stroke="none"
          d="
M233.529968,381.617065 
	C235.910950,384.552673 235.052307,386.896515 232.871780,388.918701 
	C226.888245,394.467773 223.207016,401.457153 219.836578,408.749146 
	C216.331528,416.332397 210.644241,421.255188 201.836731,421.645508 
	C198.048370,421.813385 195.061279,420.206268 192.757141,417.377655 
	C190.944839,415.152832 191.074875,412.730438 192.971100,410.567352 
	C194.583267,408.728271 196.227417,407.592224 199.002365,409.024139 
	C203.321503,411.252899 206.744690,409.609314 208.963242,405.488800 
	C213.206284,397.608307 217.154083,389.550262 223.472626,383.008850 
	C226.352310,380.027588 229.322189,377.818848 233.529968,381.617065 
z"/>
    <path fill="#ffffff" opacity="1.000000" stroke="none"
          d="
M511.308258,385.727722 
	C516.060486,391.404541 519.213745,397.622742 522.326904,403.880432 
	C525.273254,409.802826 526.840820,410.590820 533.354675,409.173676 
	C536.794250,408.425385 538.845459,409.863068 540.111755,412.743439 
	C541.368958,415.602844 539.619141,417.567566 537.564453,419.103088 
	C532.215759,423.100220 523.263916,421.895233 517.947876,416.467407 
	C515.496826,413.964813 513.344177,411.161957 512.000793,407.900177 
	C509.177765,401.045624 505.275818,394.928497 500.068542,389.648834 
	C497.413605,386.956970 496.209442,383.984344 499.327271,380.973755 
	C502.244873,378.156494 505.101562,379.338654 507.628052,381.850830 
	C508.806885,383.023041 509.935852,384.245361 511.308258,385.727722 
z"/>
    <path fill="#ffffff" opacity="1.000000" stroke="none"
          d="
M381.034790,412.481628 
	C379.267273,397.453003 383.396332,384.456635 391.438538,372.415131 
	C393.534180,369.277374 395.898865,367.804810 399.283722,369.769989 
	C402.872009,371.853241 403.084564,374.786469 400.719147,378.157532 
	C393.753235,388.084839 390.614014,398.954712 392.542297,411.145416 
	C393.515167,417.296143 391.869385,420.817810 387.906677,421.037445 
	C382.379089,421.343811 381.880341,416.888977 381.034790,412.481628 
z"/>
    <path fill="#ffffff" opacity="1.000000" stroke="none"
          d="
M339.778809,411.680420 
	C341.860992,400.030975 338.855164,389.923004 332.978973,380.449524 
	C332.366028,379.461365 331.748108,378.474304 331.184784,377.457733 
	C329.556305,374.518921 330.023834,371.966095 332.867279,370.119720 
	C335.742523,368.252777 338.222961,368.952484 340.197845,371.680237 
	C349.705933,384.812836 353.096649,399.466125 350.833160,415.427246 
	C350.342194,418.889282 348.023834,421.569122 344.373291,420.978516 
	C339.460510,420.183685 339.000488,416.269501 339.778809,411.680420 
z"/>
</svg>